<?xml version="1.0" encoding="utf-8"?>
<!-- Generator: Adobe Illustrator 19.0.1, SVG Export Plug-In . SVG Version: 6.00 Build 0)  -->
<svg version="1.1" id="Layer_1" xmlns="http://www.w3.org/2000/svg" xmlns:xlink="http://www.w3.org/1999/xlink" x="0px" y="0px"
	 viewBox="-50 141 511 511" style="enable-background:new -50 141 511 511;" xml:space="preserve">
<path d="M385.5,545.9h-15.8v-20.6c0-5.6-4.5-10.1-10.1-10.1H38.4c-5.6,0-10.1,4.5-10.1,10.1v20.6H12.4v-20.6c0-14.3,11.6-26,26-26
	h321.2c14.3,0,26,11.7,26,26V545.9z"/>
<path d="M191,454.4h15.8V550H191V454.4z"/>
<path d="M253.7,650H144.2V542.3h109.5V650z M160.1,558.1v76.1h77.8v-76.1H160.1z"/>
<path d="M433.1,650H323.7V542.3h109.5V650z M339.5,558.1v76.1h77.8v-76.1H339.5z"/>
<path d="M74.3,650H-35.2V542.3H74.3V650z M-19.4,558.1v76.1h77.8v-76.1H-19.4z"/>
<path d="M12.8,618.9c-2,0-4-0.8-5.5-2.3l-16.9-16.5c-3.1-3.1-3.2-8.1-0.1-11.2c3.1-3.1,8.1-3.2,11.2-0.1l11.4,11.1l24.9-24.3
	c3.1-3.1,8.1-3,11.2,0.1c3.1,3.1,3,8.1-0.1,11.2l-30.4,29.7C16.8,618.2,14.8,618.9,12.8,618.9z"/>
<path d="M192.2,618.9c-2,0-4-0.8-5.5-2.3l-16.9-16.5c-3.1-3.1-3.2-8.1-0.1-11.2c3.1-3.1,8.1-3.2,11.2-0.1l11.4,11.1l24.9-24.3
	c3.1-3.1,8.1-3,11.2,0.1c3.1,3.1,3,8.1-0.1,11.2l-30.4,29.7C196.2,618.2,194.2,618.9,192.2,618.9z"/>
<path d="M371.6,618.9c-2,0-4-0.8-5.5-2.3l-16.9-16.5c-3.1-3.1-3.2-8.1-0.1-11.2c3.1-3.1,8.1-3.2,11.2-0.1l11.4,11.1l24.9-24.3
	c3.1-3.1,8.1-3,11.2,0.1c3.1,3.1,3,8.1-0.1,11.2l-30.4,29.7C375.6,618.2,373.6,618.9,371.6,618.9z"/>
<path d="M376.6,456.8H21.4V143h355.2V456.8z M37.2,158.8V441h323.5V158.8H37.2z"/>
<path d="M368.6,240H29.3c-4.4,0-7.9-3.5-7.9-7.9c0-4.4,3.5-7.9,7.9-7.9h339.4c4.4,0,7.9,3.5,7.9,7.9C376.6,236.5,373,240,368.6,240z
	"/>
<path d="M122.5,212.3c-11.3,0-20.5-9.2-20.5-20.5c0-11.3,9.2-20.5,20.5-20.5c11.3,0,20.5,9.2,20.5,20.5
	C142.9,203.1,133.8,212.3,122.5,212.3z M122.5,187.2c-2.5,0-4.6,2.1-4.6,4.6c0,2.6,2.1,4.6,4.6,4.6c2.6,0,4.6-2.1,4.6-4.6
	C127.1,189.3,125,187.2,122.5,187.2z"/>
<path d="M66.1,212.1c-11.3,0-20.5-9.2-20.5-20.5c0-11.3,9.2-20.5,20.5-20.5c11.3,0,20.5,9.2,20.5,20.5
	C86.6,202.9,77.4,212.1,66.1,212.1z M66.1,187c-2.5,0-4.6,2.1-4.6,4.6c0,2.6,2.1,4.6,4.6,4.6c2.6,0,4.6-2.1,4.6-4.6
	C70.8,189.1,68.7,187,66.1,187z"/>
<path d="M178.8,212.4c-11.3,0-20.5-9.2-20.5-20.5c0-11.3,9.2-20.5,20.5-20.5c11.3,0,20.5,9.2,20.5,20.5
	C199.3,203.3,190.1,212.4,178.8,212.4z M178.8,187.4c-2.5,0-4.6,2.1-4.6,4.6c0,2.6,2.1,4.6,4.6,4.6c2.6,0,4.6-2.1,4.6-4.6
	C183.4,189.4,181.4,187.4,178.8,187.4z"/>
</svg>
