<?xml version="1.0" encoding="utf-8"?>
<!-- Generator: Adobe Illustrator 19.0.1, SVG Export Plug-In . SVG Version: 6.00 Build 0)  -->
<svg version="1.1" id="Layer_1" xmlns="http://www.w3.org/2000/svg" xmlns:xlink="http://www.w3.org/1999/xlink" x="0px" y="0px"
	 viewBox="-50 141 511 511" style="enable-background:new -50 141 511 511;" xml:space="preserve">
<path d="M400.6,495.6V288.1h-80.1c-4.2,0-7.8,3.2-7.9,7.4c-0.1,4.3,3.3,7.7,7.6,7.7h65.4v177.2H139.3V303.2h150.3
	c3.9,0,7.4-2.8,7.8-6.6c0.5-4.6-3-8.5-7.5-8.5H78.4v207.5H400.6z M124.2,480.5H93.5V303.2h30.7V480.5z"/>
<path d="M355.3,323.5H158.5c-2.6,0-5,1.4-6.2,3.7c-2.9,5.7,1.2,11.4,6.6,11.4h196.8c2.6,0,5-1.4,6.2-3.7
	C364.8,329.1,360.7,323.5,355.3,323.5z"/>
<path d="M355.3,364H159.3c-3.9,0-7.4,2.8-7.8,6.6c-0.5,4.6,3,8.5,7.5,8.5H355c4.2,0,7.8-3.2,7.9-7.4C363,367.5,359.6,364,355.3,364z
	"/>
<path d="M355.3,404.6H159.3c-4.2,0-7.8,3.2-7.9,7.4c-0.1,4.3,3.3,7.8,7.5,7.8H355c3.9,0,7.4-2.8,7.8-6.6
	C363.4,408.5,359.8,404.6,355.3,404.6z"/>
<path d="M355.3,445.1H159.3c-3.9,0-7.4,2.8-7.8,6.6c-0.5,4.6,3,8.5,7.5,8.5H355c4.2,0,7.8-3.2,7.9-7.4
	C363,448.6,359.6,445.1,355.3,445.1z"/>
<path d="M-43.7,399.7H61c4.2,0,7.8-3.2,7.9-7.4c0.1-4.3-3.3-7.8-7.5-7.8h-89.9V230.8c0-11.3-1.4-10.6,10.2-8.6c8-6.7,2-5.3-4.7-5.3
	c-18.5,0-20.7-4.7-20.7,13.8V399.7z"/>
<path d="M8,265.8l300,0v-74.9c0-8.7-12.8-9.5-12.8,1.9v58H23.1v-94.5h272.1c0,9.2,0.2,13.9,6.6,13.9c6.2,0,6.2-4.5,6.2-9.8
	c-0.1-3.9-0.1-19.2-0.1-19.2s-19.9,0-28.5,0H8V265.8z"/>
<path d="M261.1,214.7H57.6c-4.2,0-7.8,3.2-7.9,7.4c-0.1,4.3,3.3,7.7,7.5,7.7h203.5c3.9,0,7.4-2.8,7.8-6.6
	C269.1,218.6,265.5,214.7,261.1,214.7z"/>
<path d="M261.1,176.9l-203.5,0c-3.9,0-7.4,2.8-7.8,6.6c-0.5,4.6,3,8.5,7.5,8.5h203.5c4.2,0,7.8-3.2,7.9-7.4
	C268.7,180.4,265.3,176.9,261.1,176.9z"/>
<path d="M247.3,595.5H-0.4c-4.2,0-7.8,3.2-7.9,7.4c-0.1,4.3,3.3,7.8,7.5,7.8H247c4.2,0,7.8-3.2,7.9-7.4
	C255,599,251.6,595.5,247.3,595.5z"/>
<path d="M247.3,557.8H-0.5c-3.9,0-7.4,2.8-7.8,6.6c-0.5,4.6,3,8.5,7.5,8.5H247c4.2,0,7.8-3.2,7.9-7.4
	C255,561.3,251.6,557.8,247.3,557.8z"/>
<path d="M426,387.7c-6.7,0-18.4,2.1-10.4,8.8c10.9-2,22.3-8,22.3,2.5v177.6h-51.8c-4.2,0-7.8,3.2-7.9,7.4c-0.1,4.3,3.3,7.8,7.5,7.8
	h67.3V399c0-10-2.9-3.6-10.1-9.5C437.4,384.9,433.8,387.7,426,387.7z"/>
<path d="M365.6,516.4H180.3c-3.9,0-7.4,2.8-7.8,6.6c-0.5,4.6,3,8.5,7.5,8.5h170.5v105.3H-33.9V531.5h183.3c4.2,0,7.8-3.2,7.9-7.4
	c0.1-4.3-3.3-7.7-7.6-7.7H-49V652h414.6V516.4z"/>
<path d="M293.2,608l34-50.4c2.3-3.5,1.4-8.2-2-10.5c-3.5-2.3-8.2-1.4-10.5,2L287,590.3l-9.2-13.6c-2.3-3.5-7-4.4-10.5-2
	c-3.5,2.3-4.4,7-2,10.5l15.4,22.9C283.7,612.4,290.2,612.4,293.2,608z"/>
<path d="M453.1,384.3v15.1h-38.6c-3.8,0-7-3.1-7-7v-1.2c0-3.8,3.1-7,7-7H453.1z"/>
<path d="M-43.7,213.2v15.1h38.6c3.8,0,7-3.1,7-7v-1.2c0-3.8-3.1-7-7-7H-43.7z"/>
</svg>
