<?xml version="1.0" encoding="utf-8"?>
<!-- Generator: Adobe Illustrator 19.0.1, SVG Export Plug-In . SVG Version: 6.00 Build 0)  -->
<svg version="1.1" id="Layer_1" xmlns="http://www.w3.org/2000/svg" xmlns:xlink="http://www.w3.org/1999/xlink" x="0px" y="0px"
	 viewBox="-49 141 512 512" style="enable-background:new -49 141 512 512;" xml:space="preserve">
<path d="M453.9,357.5H251.3V178.2c0-4.5-3.7-8.2-8.2-8.2H-39.9c-4.5,0-8.2,3.7-8.2,8.2v186.7c0,4.5,3.7,8.2,8.2,8.2h180.7l21.9,21.9
	v157.4c0,4.5,3.7,8.2,8.2,8.2h40.3v42.3c0,4.5,3.7,8.2,8.2,8.1c2.2,0,4.2-0.9,5.8-2.4l48.1-48.1h180.7c4.5,0,8.2-3.7,8.2-8.2V365.6
	C462.1,361.1,458.5,357.5,453.9,357.5z M144.2,356.7h-176V186.3H235v170.4h-40.3c-4.5,0-8.2,3.7-8.2,8.2v30.8l-36.5-36.5
	C148.4,357.6,146.3,356.7,144.2,356.7z M445.8,544.2h-176c-2.2,0-4.2,0.9-5.8,2.4l-36.5,36.5v-30.8c0-4.5-3.7-8.2-8.2-8.2H179V411.3
	l9.8,9.8c3.2,3.2,8.3,3.2,11.5,0c1.5-1.5,2.4-3.6,2.4-5.8v-41.6h243V544.2z"/>
<path d="M8.4,237.9h134.5c4.5,0,8.2-3.7,8.2-8.2c0-4.5-3.7-8.2-8.2-8.2H8.4c-4.5,0-8.2,3.7-8.2,8.2C0.2,234.2,3.9,237.9,8.4,237.9z"
	/>
<path d="M8.4,278.7h186.4c4.5,0,8.2-3.7,8.2-8.2s-3.7-8.2-8.2-8.2H8.4c-4.5,0-8.2,3.7-8.2,8.2S3.9,278.7,8.4,278.7z"/>
<path d="M344.5,510.9H211.7c-4.5,0-8.2,3.7-8.2,8.2c0,4.5,3.7,8.2,8.2,8.2h132.8c4.5,0,8.2-3.7,8.2-8.2
	C352.6,514.5,349,510.9,344.5,510.9z"/>
<path d="M211.7,492.4h132.8c4.5,0,8.2-3.7,8.2-8.2s-3.7-8.2-8.2-8.2H211.7c-4.5,0-8.2,3.7-8.2,8.2S207.2,492.4,211.7,492.4z"/>
<path d="M142.9,303.1H8.4c-4.5,0-8.2,3.7-8.2,8.2c0,4.5,3.7,8.2,8.2,8.2h134.5c4.5,0,8.2-3.7,8.2-8.2
	C151.1,306.8,147.4,303.1,142.9,303.1z"/>
<path d="M344.5,441c4.5,0,8.2-3.7,8.2-8.2c0-6.8,2.7-13.2,7.5-18c4.8-4.8,11.3-7.4,18.1-7.3c13.5,0.4,24.4,11.3,24.9,24.8
	c0.1,8.3-3.8,16.1-10.6,20.9c-14.2,10.1-22.7,26.4-22.8,43.8v0.9c0,4.5,3.7,8.2,8.2,8.2s8.2-3.7,8.2-8.2v-0.8
	c0.1-12.2,6-23.5,16-30.5c18.7-13.3,23-39.3,9.7-58c-13.3-18.7-39.3-23-58-9.7c-10.9,7.8-17.4,20.4-17.4,33.8
	C336.3,437.3,339.9,441,344.5,441L344.5,441z"/>
<path d="M385.4,515.9c-0.2-0.5-0.4-1-0.7-1.4c-0.3-0.4-0.6-0.8-1-1.2c-1.9-1.9-4.7-2.8-7.4-2.2c-0.5,0.1-1,0.2-1.5,0.5
	c-0.5,0.2-1,0.4-1.4,0.7c-0.4,0.3-0.9,0.6-1.2,1c-0.4,0.4-0.7,0.8-1,1.2c-0.3,0.4-0.5,0.9-0.7,1.4c-0.2,0.5-0.4,1-0.5,1.5
	c-0.1,0.5-0.1,1.1-0.1,1.6c0,3.3,2,6.3,5,7.5c1,0.4,2.1,0.6,3.1,0.6c2.1,0,4.2-0.9,5.7-2.4c1.6-1.5,2.4-3.6,2.4-5.8
	c0-0.5-0.1-1.1-0.2-1.6C385.7,516.9,385.6,516.4,385.4,515.9z"/>
</svg>
