<?xml version="1.0" encoding="utf-8"?>
<!-- Generator: Adobe Illustrator 19.0.1, SVG Export Plug-In . SVG Version: 6.00 Build 0)  -->
<svg version="1.1" id="Layer_1" xmlns="http://www.w3.org/2000/svg" xmlns:xlink="http://www.w3.org/1999/xlink" x="0px" y="0px"
	 viewBox="-50 141 511 511" style="enable-background:new -50 141 511 511;" xml:space="preserve">
<g>
	<g>
		<path d="M168.1,250.7l-14-6.2c-0.6-2.3-1.3-4.6-2.1-6.7l7.8-13.4c1.4-2.4,1.4-5.4,0.1-7.9c-3.8-6.8-8.4-13.2-13.6-19
			c-1.9-2.2-4.9-3.1-7.8-2.5l-14.7,3.4c-1.7-1.4-3.5-2.7-5.4-4L117,179c-0.3-2.8-2-5.3-4.6-6.5c-7-3.3-14.4-5.7-21.9-7.4
			c-2.9-0.6-5.8,0.4-7.7,2.6l-10.3,11.9h-6.2l-10.3-11.9c-1.9-2.2-4.9-3.2-7.7-2.6c-7.6,1.6-14.9,4.1-21.9,7.4
			c-2.6,1.2-4.3,3.7-4.6,6.5l-1.4,15.5c-1.9,1.3-3.6,2.6-5.4,4l-14.7-3.4c-2.8-0.7-5.8,0.3-7.8,2.5c-5.2,5.8-9.8,12.2-13.6,19
			c-1.4,2.5-1.4,5.5,0.1,7.9l7.8,13.4c-0.8,2.1-1.5,4.4-2.1,6.7l-14,6.2c-2.9,1.3-4.8,4.2-4.8,7.3v21.7c0,3.2,1.9,6,4.8,7.3l14,6.2
			c0.6,2.3,1.3,4.6,2.1,6.7l-7.8,13.4c-1.4,2.4-1.4,5.4-0.1,7.9c3.8,6.8,8.4,13.2,13.6,19c1.9,2.2,4.9,3.1,7.8,2.5l14.7-3.4
			c1.7,1.4,3.5,2.7,5.4,4l1.4,15.5c0.3,2.8,2,5.3,4.6,6.5c7,3.3,14.4,5.7,21.9,7.4c2.9,0.6,5.8-0.4,7.7-2.6l10.2-11.9h6.2l10.3,11.9
			c1.5,1.8,3.7,2.8,6.1,2.8c0.6,0,1.1-0.1,1.6-0.2c7.6-1.6,14.9-4.1,21.9-7.4c2.6-1.2,4.3-3.7,4.6-6.5l1.4-15.5
			c1.9-1.3,3.6-2.6,5.4-4l14.7,3.4c2.8,0.7,5.8-0.3,7.8-2.5c5.2-5.8,9.8-12.2,13.6-19c1.4-2.5,1.4-5.5-0.1-7.9L152,300
			c0.8-2.1,1.5-4.4,2.1-6.7l14-6.2c2.9-1.3,4.8-4.2,4.8-7.3V258C172.8,254.9,171,252,168.1,250.7z M156.8,274.6l-12.8,5.6
			c-2.3,1-4,3.1-4.6,5.5c-0.9,4.1-2.1,8-3.7,11.9c-1,2.3-0.8,4.9,0.5,7.1l7.3,12.6c-1.9,3-4,6-6.3,8.7l-13.8-3.2
			c-2.5-0.6-5.2,0.1-7.1,1.8c-3.1,2.7-6.3,5.1-9.8,7.3c-2.1,1.3-3.5,3.6-3.8,6.1l-1.3,14.7c-3.2,1.3-6.5,2.4-9.8,3.3l-9.5-11
			c-1.5-1.8-3.7-2.8-6.1-2.8H62.7c-2.3,0-4.5,1-6.1,2.8l-9.5,11c-3.3-0.9-6.6-2-9.8-3.3L36,338c-0.2-2.5-1.6-4.7-3.8-6.1
			c-3.5-2.1-6.7-4.6-9.8-7.3c-1.9-1.7-4.6-2.4-7.1-1.8L1.6,326c-2.3-2.8-4.3-5.7-6.3-8.7l7.3-12.6c1.2-2.2,1.4-4.8,0.5-7.1
			c-1.6-3.8-2.8-7.8-3.7-11.9c-0.6-2.5-2.3-4.5-4.6-5.5l-12.8-5.6v-11.3l12.8-5.6c2.3-1,4-3.1,4.6-5.5c0.9-4.1,2.1-8,3.7-11.9
			c1-2.3,0.8-4.9-0.5-7.1l-7.3-12.6c1.9-3,4-6,6.3-8.7l13.8,3.2c2.5,0.6,5.2-0.1,7.1-1.8c3.1-2.7,6.3-5.1,9.8-7.3
			c2.1-1.3,3.5-3.6,3.8-6.1l1.3-14.7c3.2-1.3,6.5-2.4,9.8-3.3l9.5,11c1.5,1.8,3.7,2.8,6.1,2.8h13.5c2.3,0,4.5-1,6.1-2.8l9.5-11
			c3.3,0.9,6.6,2,9.8,3.3l1.3,14.7c0.2,2.5,1.6,4.7,3.8,6.1c3.5,2.1,6.7,4.6,9.8,7.3c1.9,1.7,4.6,2.4,7.1,1.8l13.8-3.2
			c2.3,2.8,4.3,5.7,6.3,8.7l-7.3,12.6c-1.2,2.2-1.4,4.8-0.5,7.1c1.6,3.8,2.8,7.8,3.7,11.9c0.6,2.5,2.3,4.5,4.6,5.5l12.8,5.6
			L156.8,274.6L156.8,274.6z"/>
	</g>
</g>
<g>
	<g>
		<path d="M69.4,212.9c-30.9,0-56,25.1-56,56c0,30.9,25.1,56,56,56c30.9,0,56-25.1,56-56S100.4,212.9,69.4,212.9z M69.4,308.9
			c-22.1,0-40-17.9-40-40c0-22.1,17.9-40,40-40c22.1,0,40,17.9,40,40S91.5,308.9,69.4,308.9z"/>
	</g>
</g>
<g>
	<g>
		<path d="M440.2,236.5l-11-4.9c-0.4-1.5-0.9-3-1.4-4.5l6.2-10.6c1.4-2.4,1.4-5.5,0.1-7.9c-3.2-5.8-7.1-11.2-11.5-16.1
			c-1.9-2.2-4.9-3.1-7.7-2.5l-11.6,2.7c-1.1-0.9-2.3-1.8-3.5-2.6l-1.1-12.3c-0.3-2.8-2-5.3-4.6-6.5c-5.9-2.8-12.2-4.9-18.6-6.2
			c-2.9-0.6-5.8,0.4-7.7,2.6l-8.1,9.5h-3.9l-8.1-9.5c-1.9-2.2-4.9-3.2-7.7-2.6c-6.4,1.4-12.6,3.5-18.6,6.2c-2.6,1.2-4.4,3.7-4.6,6.5
			l-1.1,12.3c-1.2,0.8-2.4,1.7-3.5,2.6l-11.6-2.7c-2.8-0.7-5.8,0.3-7.7,2.5c-4.4,4.9-8.3,10.3-11.5,16.1c-1.4,2.5-1.4,5.5,0.1,7.9
			l6.1,10.6c-0.5,1.4-1,2.9-1.4,4.5l-11,4.9c-2.9,1.3-4.8,4.1-4.8,7.3V262c0,3.2,1.9,6,4.8,7.3l11,4.9c0.4,1.5,0.9,3,1.4,4.5
			l-6.2,10.6c-1.4,2.4-1.4,5.5-0.1,7.9c3.2,5.8,7.1,11.2,11.5,16.1c1.9,2.2,4.9,3.1,7.8,2.5l11.6-2.7c1.1,0.9,2.3,1.8,3.5,2.6
			l1.1,12.3c0.3,2.8,2,5.3,4.6,6.5c5.9,2.8,12.2,4.9,18.6,6.2c2.9,0.6,5.8-0.4,7.7-2.6l8.1-9.5h3.9l8.1,9.5c1.5,1.8,3.7,2.8,6.1,2.8
			c0.6,0,1.1-0.1,1.6-0.2c6.4-1.4,12.6-3.5,18.6-6.2c2.6-1.2,4.4-3.7,4.6-6.5l1.1-12.3c1.2-0.8,2.4-1.7,3.5-2.6l11.6,2.7
			c2.8,0.7,5.8-0.3,7.7-2.5c4.4-4.9,8.3-10.3,11.5-16.1c1.4-2.5,1.4-5.5-0.1-7.9l-6.2-10.6c0.5-1.4,1-2.9,1.4-4.5l11-4.9
			c2.9-1.3,4.8-4.1,4.8-7.3v-18.1C444.9,240.7,443.1,237.8,440.2,236.5z M428.9,256.8l-9.9,4.3c-2.3,1-4,3.1-4.6,5.5
			c-0.7,3.3-1.7,6.5-3,9.6c-1,2.3-0.8,4.9,0.5,7.1l5.7,9.8c-1.3,2-2.7,3.9-4.2,5.8l-10.7-2.5c-2.5-0.6-5.1,0.1-7.1,1.8
			c-2.5,2.2-5.2,4.2-8,5.9c-2.1,1.3-3.5,3.6-3.8,6.1l-1,11.4c-2.1,0.8-4.3,1.6-6.5,2.2l-7.3-8.5c-1.5-1.8-3.7-2.8-6.1-2.8h-11.2
			c-2.3,0-4.5,1-6.1,2.8l-7.3,8.5c-2.1-0.6-4.3-1.3-6.5-2.2l-1-11.4c-0.2-2.5-1.6-4.8-3.8-6.1c-2.8-1.7-5.5-3.7-8-5.9
			c-1.9-1.7-4.6-2.4-7.1-1.8l-10.7,2.5c-1.5-1.9-2.9-3.8-4.2-5.8l5.7-9.8c1.2-2.2,1.4-4.8,0.5-7.1c-1.3-3.1-2.3-6.4-3-9.6
			c-0.6-2.5-2.3-4.5-4.6-5.5l-9.9-4.3v-7.7l9.9-4.3c2.3-1,4-3.1,4.6-5.5c0.7-3.3,1.7-6.5,3-9.7c1-2.3,0.8-4.9-0.5-7.1l-5.7-9.8
			c1.3-2,2.7-3.9,4.2-5.8l10.7,2.5c2.5,0.6,5.1-0.1,7.1-1.8c2.5-2.2,5.2-4.2,8-5.9c2.1-1.3,3.5-3.6,3.8-6.1l1-11.4
			c2.1-0.8,4.3-1.6,6.5-2.2l7.3,8.5c1.5,1.8,3.7,2.8,6.1,2.8h11.2c2.3,0,4.5-1,6.1-2.8l7.3-8.5c2.1,0.6,4.3,1.3,6.5,2.2l1,11.4
			c0.2,2.5,1.6,4.8,3.8,6.1c2.8,1.7,5.5,3.7,8,5.9c1.9,1.7,4.6,2.4,7.1,1.8l10.7-2.5c1.5,1.9,2.9,3.8,4.2,5.8l-5.7,9.8
			c-1.2,2.2-1.4,4.8-0.5,7.1c1.3,3.1,2.3,6.4,3,9.6c0.6,2.5,2.3,4.5,4.6,5.5l9.9,4.3V256.8z"/>
	</g>
</g>
<g>
	<g>
		<path d="M357.4,212.9c-22.1,0-40,17.9-40,40c0,22.1,17.9,40,40,40c22.1,0,40-17.9,40-40S379.5,212.9,357.4,212.9z M357.4,276.9
			c-13.3,0-24-10.7-24-24c0-13.2,10.8-24,24-24c13.3,0,24,10.7,24,24C381.4,266.2,370.7,276.9,357.4,276.9z"/>
	</g>
</g>
<g>
	<g>
		<path d="M438.2,503.4l-11.6-2.4c-0.5-2-1-4-1.6-6l8.9-8c2.6-2.3,3.4-5.9,2-9.1c-3.9-9-8.8-17.4-14.7-25.2
			c-2.1-2.7-5.6-3.9-8.9-2.8l-11.2,3.7c-1.4-1.5-2.9-3-4.4-4.4l3.7-11.2c1.1-3.3,0-6.8-2.8-8.9c-7.8-5.9-16.2-10.9-25.2-14.7
			c-3.2-1.3-6.8-0.5-9.1,2l-8,8.9c-2-0.6-4-1.1-6-1.6l-2.4-11.6c-0.8-3.7-4-6.4-7.8-6.4h-27.3c-3.8,0-7,2.6-7.8,6.4l-2.4,11.6
			c-2,0.5-4,1-6,1.6l-8-8.9c-2.3-2.5-5.9-3.4-9.1-2c-9,3.9-17.4,8.8-25.2,14.7c-2.7,2.1-3.9,5.6-2.8,8.9l3.7,11.2
			c-1.5,1.4-3,2.9-4.4,4.4l-11.2-3.7c-3.3-1.1-6.8,0.1-8.9,2.8c-5.9,7.8-10.9,16.2-14.7,25.2c-1.3,3.2-0.5,6.8,2,9.1l8.9,8
			c-0.6,2-1.1,4-1.6,6l-11.6,2.4c-3.7,0.8-6.4,4-6.4,7.8v27.3c0,3.8,2.6,7,6.4,7.8l11.6,2.4c0.5,2,1,4,1.6,6l-8.9,8
			c-2.6,2.3-3.4,5.9-2,9.1c3.9,9,8.8,17.4,14.7,25.2c2.1,2.7,5.6,3.8,8.9,2.8l11.2-3.7c1.4,1.5,2.9,3,4.4,4.4l-3.7,11.2
			c-1.1,3.3,0,6.8,2.8,8.9c7.8,5.9,16.2,10.9,25.2,14.7c3.2,1.4,6.8,0.5,9.1-2l8-8.9c2,0.6,4,1.1,6,1.6l2.4,11.6
			c0.8,3.7,4,6.4,7.8,6.4h27.3c3.8,0,7-2.7,7.8-6.4l2.4-11.6c2-0.5,4-1,6-1.6l8,8.9c2.3,2.6,5.9,3.4,9.1,2c9-3.9,17.4-8.8,25.2-14.7
			c2.7-2.1,3.9-5.6,2.8-8.9l-3.7-11.2c1.5-1.4,3-2.9,4.4-4.4l11.2,3.7c3.3,1.1,6.8-0.1,8.9-2.8c5.9-7.8,10.9-16.2,14.7-25.2
			c1.3-3.2,0.5-6.8-2-9.1l-8.9-8c0.6-2,1.1-4,1.6-6l11.6-2.4c3.7-0.8,6.4-4,6.4-7.8v-27.3C444.5,507.5,441.9,504.2,438.2,503.4z
			 M428.5,532.1l-10.4,2.2c-3.2,0.7-5.6,3.2-6.2,6.4c-0.9,4.7-2.1,9.4-3.8,13.9c-1.1,3.1-0.2,6.5,2.2,8.7l8.4,7.5
			c-2.1,4.2-4.4,8.2-7.1,12l-10.6-3.5c-3.1-1-6.5-0.1-8.6,2.4c-3.1,3.7-6.5,7.1-10.2,10.2c-2.5,2.1-3.4,5.5-2.4,8.6l3.5,10.6
			c-3.9,2.6-7.9,5-12,7.1l-7.5-8.4c-2.2-2.4-5.6-3.3-8.7-2.2c-4.5,1.6-9.2,2.9-13.9,3.8c-3.2,0.6-5.7,3-6.4,6.2l-2.2,10.4h-14.3
			l-2.2-10.4c-0.7-3.2-3.2-5.6-6.4-6.2c-4.7-0.9-9.4-2.1-13.9-3.8h0c-3.1-1.1-6.5-0.2-8.7,2.2l-7.5,8.4c-4.2-2.1-8.2-4.4-12-7.1
			l3.5-10.6c1-3.1,0.1-6.5-2.4-8.6c-3.7-3.1-7.1-6.5-10.2-10.2c-2.1-2.5-5.5-3.4-8.6-2.4l-10.6,3.5c-2.6-3.9-5-7.9-7.1-12l8.4-7.5
			c2.4-2.2,3.3-5.6,2.2-8.7c-1.6-4.5-2.9-9.2-3.8-13.9c-0.6-3.2-3-5.7-6.2-6.4l-10.4-2.2v-14.3l10.4-2.2c3.2-0.7,5.6-3.2,6.2-6.4
			c0.9-4.7,2.1-9.4,3.8-13.9c1.1-3.1,0.2-6.5-2.2-8.7l-8.4-7.5c2.1-4.2,4.4-8.2,7.1-12l10.6,3.5c3.1,1,6.5,0.1,8.6-2.4
			c3.1-3.7,6.5-7.1,10.2-10.2c2.5-2.1,3.4-5.5,2.4-8.6l-3.5-10.6c3.9-2.6,7.9-5,12-7.1l7.5,8.4c2.2,2.4,5.6,3.3,8.7,2.2
			c4.5-1.6,9.2-2.9,13.9-3.8c3.2-0.6,5.7-3,6.4-6.2l2.2-10.4h14.3l2.2,10.4c0.7,3.2,3.2,5.6,6.4,6.2c4.7,0.9,9.4,2.1,13.9,3.8
			c3.1,1.1,6.5,0.2,8.7-2.2l7.5-8.4c4.2,2.1,8.2,4.4,12,7.1l-3.5,10.6c-1,3.1-0.1,6.5,2.4,8.6c3.7,3.1,7.1,6.5,10.2,10.2
			c2.1,2.5,5.5,3.4,8.6,2.4l10.6-3.5c2.6,3.9,5,7.9,7.1,12l-8.4,7.5c-2.4,2.2-3.3,5.6-2.2,8.7c1.6,4.5,2.9,9.2,3.8,13.9
			c0.6,3.2,3,5.7,6.2,6.4l10.4,2.2V532.1z"/>
	</g>
</g>
<g>
	<g>
		<path d="M325.4,452.9c-39.8,0-72,32.2-72,72c0,39.8,32.2,72,72,72c39.7,0,72-32.3,72-72C397.4,485.1,365.2,452.9,325.4,452.9z
			 M325.4,580.9c-30.9,0-56-25.1-56-56c0-30.9,25.1-56,56-56s56,25.1,56,56C381.4,555.8,356.4,580.9,325.4,580.9z"/>
	</g>
</g>
<g>
	<g>
		<rect x="189.4" y="252.9" width="64" height="16"/>
	</g>
</g>
<g>
	<g>
		<path d="M188.8,513.8c-0.8-1.9-2.3-3.4-4.2-4.2l0,0l-56-24c-4.1-1.7-8.8,0.1-10.5,4.2c-0.4,1-0.6,2.1-0.6,3.2v16h-96v-128h-16v136
			c0,4.4,3.6,8,8,8c0,0,0,0,0,0h104v16c0,4.4,3.6,8,8,8c0,0,0,0,0,0c1.1,0,2.2-0.2,3.1-0.6l56-24
			C188.7,522.5,190.5,517.8,188.8,513.8z M133.4,528.8V505l27.7,11.9L133.4,528.8z"/>
	</g>
</g>
<g>
	<g>
		<path d="M351.3,495.8l-34.4,41.3l-17.8-17.8l-11.3,11.3l24,24c1.5,1.5,3.5,2.3,5.7,2.3c0.1,0,0.2,0,0.4,0c2.2-0.1,4.3-1.1,5.8-2.9
			l40-48L351.3,495.8z"/>
	</g>
</g>
</svg>
