<?xml version="1.0" encoding="utf-8"?>
<!-- Generator: Adobe Illustrator 19.0.1, SVG Export Plug-In . SVG Version: 6.00 Build 0)  -->
<svg version="1.1" id="Layer_1" xmlns="http://www.w3.org/2000/svg" xmlns:xlink="http://www.w3.org/1999/xlink" x="0px" y="0px"
	 viewBox="-49 141 512 512" style="enable-background:new -49 141 512 512;" xml:space="preserve">
<g id="Outline">
	<path d="M336.3,496.2l-18,10.4c-4.7-3.7-9.8-6.7-15.3-8.9V477h-48v20.7c-5.5,2.2-10.7,5.2-15.3,8.9l-0.7-0.4V461
		c0-22-45.6-32-88-32s-88,10-88,32v144c0,22,45.6,32,88,32c40.4,0,83.6-9.1,87.6-29l1.1-0.6c4.7,3.7,9.8,6.6,15.3,8.9V637h48v-20.7
		c5.5-2.2,10.7-5.2,15.3-8.9l18,10.4l24-41.6l-17.9-10.4c0.9-5.9,0.9-11.8,0-17.7l17.9-10.4L336.3,496.2z M221.7,496.2l-11.8,20.5
		c-19,5.9-38.9,8.7-58.9,8.3c-46.8,0-70.8-11.7-72-16v-28.5c0.1,0.1,0.2,0.1,0.4,0.2c1.9,0.9,4,1.8,6.2,2.7c0.6,0.2,1.2,0.4,1.8,0.6
		c1.7,0.6,3.4,1.2,5.3,1.7c0.9,0.3,1.7,0.5,2.6,0.7c1.7,0.5,3.5,0.9,5.3,1.4c0.9,0.2,1.7,0.4,2.6,0.6c2.3,0.5,4.6,0.9,7,1.3l1.3,0.2
		c2.8,0.5,5.8,0.9,8.7,1.2l2.6,0.3c2.2,0.2,4.3,0.5,6.6,0.6c1,0.1,2.1,0.2,3.1,0.2c2.2,0.1,4.3,0.3,6.5,0.4l2.8,0.1
		c3.1,0.1,6.1,0.2,9.2,0.2s6.1-0.1,9.2-0.2l2.8-0.1c2.2-0.1,4.3-0.2,6.5-0.4c1-0.1,2.1-0.2,3.1-0.2c2.2-0.2,4.4-0.4,6.6-0.6l2.6-0.3
		c3-0.4,5.9-0.8,8.7-1.2l1.3-0.2c2.4-0.4,4.7-0.9,7-1.3c0.9-0.2,1.8-0.4,2.6-0.6c1.8-0.4,3.6-0.9,5.3-1.4c0.9-0.2,1.8-0.5,2.6-0.7
		c1.8-0.5,3.6-1.1,5.3-1.7c0.6-0.2,1.2-0.4,1.8-0.6c2.2-0.8,4.3-1.7,6.2-2.7c0.1-0.1,0.2-0.1,0.4-0.2V497L221.7,496.2z M151,445
		c2.9,0,5.7,0,8.5,0.1c1,0,1.9,0.1,2.8,0.1c1.7,0.1,3.5,0.1,5.1,0.2c1.4,0.1,2.6,0.2,3.9,0.3c1.2,0.1,2.4,0.2,3.5,0.3
		c1.6,0.2,3.1,0.3,4.6,0.5c0.8,0.1,1.6,0.2,2.3,0.3c2,0.3,3.8,0.5,5.7,0.8l0.6,0.1c22.2,3.7,33.9,10.1,35,13.2
		c-0.1,0.1-0.1,0.3-0.2,0.4c-0.1,0.2-0.2,0.3-0.3,0.5c-0.1,0.1-0.3,0.3-0.4,0.4s-0.4,0.4-0.6,0.6s-0.4,0.3-0.6,0.5s-0.6,0.5-1,0.7
		c-0.2,0.2-0.5,0.3-0.8,0.5c-0.4,0.3-0.8,0.5-1.3,0.8c-0.3,0.2-0.7,0.3-1,0.5c-0.5,0.3-1.1,0.6-1.7,0.8l-1.1,0.5
		c-0.7,0.3-1.3,0.6-2,0.9c-0.4,0.2-0.9,0.3-1.3,0.5c-0.8,0.3-1.5,0.6-2.4,0.9c-0.5,0.2-1.1,0.3-1.6,0.5c-0.9,0.3-1.7,0.6-2.7,0.8
		c-0.6,0.2-1.3,0.3-1.9,0.5c-0.9,0.3-1.9,0.5-2.9,0.8c-0.7,0.2-1.5,0.3-2.2,0.5c-1,0.2-2,0.5-3,0.7c-0.9,0.2-1.8,0.3-2.7,0.5
		c-1,0.2-2.1,0.4-3.1,0.6s-2.1,0.3-3.1,0.5s-2.1,0.3-3.2,0.5s-2.4,0.3-3.6,0.4c-1.1,0.1-2.1,0.3-3.3,0.4c-1.4,0.1-2.8,0.2-4.2,0.3
		c-1.1,0.1-2.1,0.2-3.2,0.3c-1.8,0.1-3.7,0.2-5.5,0.3c-0.8,0-1.6,0.1-2.4,0.1c-2.7,0.1-5.6,0.1-8.5,0.1c-5.8,0-11.3-0.2-16.5-0.5
		C98.6,474.1,80.1,464.8,79,461C80.5,456.6,104.4,445,151,445z M79,528.4c17,8.6,45.1,12.6,72,12.6c15.9,0.1,31.8-1.4,47.5-4.5
		l-0.8,1.3l17.9,10.4c-0.4,2.9-0.6,5.9-0.6,8.9c0,1.8,0.2,3.6,0.4,5.5c-20.5,7.8-42.4,11.4-64.4,10.5c-46.8,0-70.8-11.7-72-16l0,0
		V528.4z M79,605v-28.5c17,8.5,45.2,12.5,72,12.5c17.2,0.1,34.3-1.7,51-5.4l15,26c-9.8,5.1-31.8,11.3-66,11.3
		C104.2,621,80.2,609.3,79,605z M325.6,545.9c1.8,7.3,1.8,14.9,0,22.2l-1.4,5.8l14.1,8.2l-8,13.9l-14.2-8.2l-4.3,4.1
		c-5.4,5.2-12,9-19.2,11.1l-5.7,1.7V621h-16v-16.3l-5.7-1.7c-7.2-2.2-13.8-6-19.2-11.1l-4.3-4.1l-14.2,8.2l-8-13.9l14.1-8.2
		l-1.4-5.8c-1.8-7.3-1.8-14.9,0-22.2l1.4-5.8l-14.1-8.2l8-13.9l14.2,8.2l4.3-4.1c5.4-5.2,12-9,19.2-11.1l5.7-1.7V493h16v16.3
		l5.7,1.7c7.2,2.2,13.8,6,19.2,11.1l4.3,4.1l14.2-8.2l8,13.9l-14.1,8.2L325.6,545.9z"/>
	<path d="M279,525c-17.7,0-32,14.3-32,32s14.3,32,32,32s32-14.3,32-32S296.7,525,279,525z M279,573c-8.8,0-16-7.2-16-16
		s7.2-16,16-16s16,7.2,16,16S287.8,573,279,573z"/>
	<path d="M255,157h-96v160h96V157z M239,173v96h-64v-96H239z M207,301h-32v-16h64v16H207z"/>
	<path d="M215,293c0-2.1-0.9-4.1-2.3-5.7c-1.9-1.9-4.6-2.7-7.3-2.2c-0.5,0.1-1,0.2-1.4,0.5c-0.5,0.2-1,0.4-1.4,0.7
		c-0.4,0.3-0.8,0.6-1.2,1c-1.5,1.5-2.3,3.6-2.3,5.7c0,4.4,3.6,8,8,8S215,297.4,215,293z"/>
	<polygon points="55,333 39,333 39,381 199,381 199,413 215,413 215,381 375,381 375,333 359,333 359,365 215,365 215,333 199,333 
		199,365 55,365 	"/>
	<path d="M15,301H-1v16h96v-16H79v-16h48V157H-33v128h48V301z M63,301H31v-16h32V301z M-17,173h128v64H-17V173z M-17,269v-16h128v16
		H-17z"/>
	<path d="M287,317h160V157H287V317z M431,301H303v-80h128V301z M303,173h128v32H303V173z"/>
	<path d="M323.4,182.4c-0.4-0.3-0.9-0.6-1.4-0.7c-0.5-0.2-1-0.4-1.5-0.5c-2.6-0.5-5.3,0.3-7.2,2.2c-0.7,0.8-1.3,1.7-1.7,2.6
		c-1.3,3-0.6,6.4,1.7,8.7c0.8,0.7,1.7,1.3,2.6,1.7c1.9,0.9,4.1,0.9,6.1,0c1-0.4,1.9-1,2.6-1.7c1.5-1.5,2.3-3.6,2.3-5.7
		c0-2.1-0.9-4.1-2.3-5.7C324.3,183,323.9,182.6,323.4,182.4z"/>
	<path d="M348.7,183.3c-3.2-3-8.2-3-11.4,0c-0.7,0.8-1.3,1.7-1.7,2.6c-0.4,1-0.6,2-0.6,3c0,1,0.2,2.1,0.6,3c0.4,1,1,1.9,1.7,2.6
		c2.3,2.3,5.7,3,8.7,1.7c1-0.4,1.9-1,2.6-1.7c0.7-0.8,1.3-1.7,1.7-2.6c0.9-1.9,0.9-4.1,0-6.1C350,185,349.4,184.1,348.7,183.3z"/>
	<path d="M372.7,183.3c-0.8-0.7-1.7-1.3-2.6-1.7c-1.5-0.6-3.1-0.8-4.6-0.5c-0.5,0.1-1,0.2-1.4,0.5c-0.5,0.2-1,0.4-1.4,0.7
		c-0.4,0.3-0.8,0.6-1.2,1c-0.7,0.8-1.3,1.7-1.7,2.6c-0.9,1.9-0.9,4.1,0,6.1c0.4,1,1,1.9,1.7,2.6c0.8,0.7,1.7,1.3,2.6,1.7
		c1,0.4,2,0.6,3,0.6c2.1,0,4.2-0.8,5.7-2.3c0.7-0.8,1.3-1.7,1.7-2.6c0.9-1.9,0.9-4.1,0-6.1C374,185,373.4,184.1,372.7,183.3z"/>
</g>
</svg>
