<?xml version="1.0" encoding="utf-8"?>
<!-- Generator: Adobe Illustrator 19.0.1, SVG Export Plug-In . SVG Version: 6.00 Build 0)  -->
<svg version="1.1" id="Layer_1" xmlns="http://www.w3.org/2000/svg" xmlns:xlink="http://www.w3.org/1999/xlink" x="0px" y="0px"
	 viewBox="-49 141 512 512" style="enable-background:new -49 141 512 512;" xml:space="preserve">
<style type="text/css">
	.st0{stroke:#000000;stroke-width:2;stroke-miterlimit:10;}
</style>
<path class="st0" d="M185.7,200.9c-7.3-2.6-14.9-3.9-22.7-3.9v16c5.9,0,11.8,1,17.3,3L185.7,200.9z"/>
<path class="st0" d="M140.3,200.9C113.2,210.5,95,236.3,95,265h16c0-22,13.9-41.7,34.7-49L140.3,200.9z"/>
<path class="st0" d="M367,513.7v-30.1c45.3-7.6,80-47.1,80-94.6c0-52.9-43.1-96-96-96c-11.4,0-22.5,2-33.1,5.9
	C313.3,277.3,294,261,271,261c0,0,0,0-0.1,0c-2.1-57.7-49.7-104-107.9-104c-59.6,0-108,48.4-108,108c0,4.4,0.3,8.8,0.8,13.2
	C5.4,285.6-33,329.2-33,381c0,49.1,34.2,90.2,80,101.1v31.6l-53.7,53.7c-1.5,1.5-2.3,3.5-2.3,5.7v32H7v-28.7l53.7-53.7
	c1.5-1.5,2.3-3.5,2.3-5.7v-32.4c2.6,0.2,5.3,0.4,8,0.4h24v44.7l-37.7,37.7c-1.5,1.5-2.3,3.5-2.3,5.7v32h16v-28.7l37.7-37.7
	c1.5-1.5,2.3-3.5,2.3-5.7v-48h40v60.7l-21.7,21.7c-1.5,1.5-2.3,3.5-2.3,5.7v32h16v-28.7l21.7-21.7c1.5-1.5,2.3-3.5,2.3-5.7v-64h32
	v120h16V485h32v64c0,2.1,0.8,4.2,2.3,5.7l21.7,21.7V605h16v-32c0-2.1-0.8-4.2-2.3-5.7L263,545.7V485h40v48c0,2.1,0.8,4.2,2.3,5.7
	l37.7,37.7V605h16v-32c0-2.1-0.8-4.2-2.3-5.7L319,529.7V485h32v32c0,2.1,0.8,4.2,2.3,5.7l53.7,53.7V605h16v-32
	c0-2.1-0.8-4.2-2.3-5.7L367,513.7z M71,469c-48.5,0-88-39.5-88-88c0-46.3,36.3-84.9,82.6-87.7c2.3-0.1,4.5-1.3,5.9-3.1
	c1.4-1.8,2-4.2,1.5-6.5c-1.3-6.1-1.9-12.4-1.9-18.7c0-50.7,41.3-92,92-92s92,41.3,92,92c0,0.9-0.1,1.8-0.1,2.7l-0.1,1.8
	c-0.1,2.5,0.9,4.9,2.8,6.5c1.9,1.6,4.4,2.2,6.8,1.7c20.1-4.2,38.6,11.5,38.6,31.2c0,0.2-0.1,1.2-0.2,1.5c-0.2,2.9,1.2,5.6,3.6,7.1
	s5.4,1.7,8,0.4c11.5-5.9,23.7-8.9,36.5-8.9c44.1,0,80,35.9,80,80s-35.9,80-80,80H71z"/>
<path class="st0" d="M407,621h16v16h-16V621z"/>
<path class="st0" d="M343,621h16v16h-16V621z"/>
<path class="st0" d="M271,621h16v16h-16V621z"/>
<path class="st0" d="M-9,621H7v16H-9V621z"/>
<path class="st0" d="M55,621h16v16H55V621z"/>
<path class="st0" d="M127,621h16v16h-16V621z"/>
<path class="st0" d="M199,621h16v16h-16V621z"/>
<path class="st0" d="M167,333h16v16h-16V333z"/>
<path class="st0" d="M167,365h16v16h-16V365z"/>
<path class="st0" d="M167,397h16v16h-16V397z"/>
<path class="st0" d="M199,333h16v16h-16V333z"/>
<path class="st0" d="M199,365h16v16h-16V365z"/>
<path class="st0" d="M199,397h16v16h-16V397z"/>
<path class="st0" d="M231,333h16v16h-16V333z"/>
<path class="st0" d="M231,365h16v16h-16V365z"/>
<path class="st0" d="M231,397h16v16h-16V397z"/>
<path class="st0" d="M263,429h-32v16h48v-56h-16V429z"/>
<path class="st0" d="M191,301h-56v56h16v-40h40V301z"/>
<path class="st0" d="M183,429h32v16h-32V429z"/>
<path class="st0" d="M207,301h24v16h-24V301z"/>
<path class="st0" d="M279,301h-32v16h16v56h16V301z"/>
<path class="st0" d="M151,373h-16v72h32v-16h-16V373z"/>
</svg>
