<?xml version="1.0" encoding="utf-8"?>
<!-- Generator: Adobe Illustrator 19.0.1, SVG Export Plug-In . SVG Version: 6.00 Build 0)  -->
<svg version="1.1" id="Layer_5" xmlns="http://www.w3.org/2000/svg" xmlns:xlink="http://www.w3.org/1999/xlink" x="0px" y="0px"
	 viewBox="-49 141 512 512" style="enable-background:new -49 141 512 512;" xml:space="preserve">
<path d="M123.4,488.7l-15.2,5c1.6,5,3.7,9.8,6,14.5l14.2-7.3C126.5,497,124.8,492.9,123.4,488.7L123.4,488.7z"/>
<path d="M280.3,412.3c9.6,14.4,14.7,31.3,14.7,48.7c0,48.5-39.5,88-88,88c-28.2,0-55-13.7-71.5-36.7l-13,9.3
	C142,548.8,173.6,565,207,565c57.3,0,104-46.7,104-104c0-20.6-6-40.4-17.3-57.5L280.3,412.3z"/>
<path d="M431,261c-13.2,0-24,10.8-24,24c0,4.5,1.3,8.8,3.5,12.4l-43.5,53.1c-2.5-0.9-5.2-1.5-8.1-1.5c-1.2,0-2.3,0.2-3.4,0.3
	l-46.1-46.1L267,336.3c-3.5-2.1-7.6-3.3-12-3.3c-0.6,0-1.2,0.1-1.8,0.2c0,0-0.1,0-0.1,0l-7-56.1h-78.1l-7,56
	c-3.9,1.4-7.9,3.1-11.8,4.9l-44.6-34.7l-55.2,55.2L84,403.1c-0.2,0.5-0.4,0.9-0.6,1.4L6.9,373.9c0-0.3,0.1-0.6,0.1-0.9
	c0-13.2-10.8-24-24-24s-24,10.8-24,24s10.8,24,24,24c7.2,0,13.5-3.2,17.9-8.2l68.4,27.4L23,421.9v78.1l56,7
	c1.4,3.9,3.1,7.9,4.9,11.8l-34.7,44.6l55.2,55.2l44.6-34.7c3.9,1.9,7.8,3.5,11.8,4.9l7,56h78.1l7-56c3.9-1.4,7.9-3.1,11.8-4.9
	l44.6,34.7l55.2-55.2L330,518.9c1.9-3.9,3.5-7.8,4.9-11.8l56-7v-78.1l-56-7c-1.4-3.9-3.1-7.9-4.9-11.8l11.1-14.3
	c4.4,5,10.7,8.1,17.9,8.1c13.2,0,24-10.8,24-24c0-4.5-1.3-8.8-3.5-12.4l43.5-53.1c2.5,0.9,5.2,1.5,8.1,1.5c13.2,0,24-10.8,24-24
	S444.2,261,431,261L431,261z M-17,381c-4.4,0-8-3.6-8-8s3.6-8,8-8s8,3.6,8,8S-12.6,381-17,381z M340.9,357.4c-1.1,1.3-2.1,2.8-3,4.3
	l-59.4-9.1c-0.3-1.4-0.7-2.7-1.2-4l30.8-23.9L340.9,357.4z M263,357c0,4.4-3.6,8-8,8s-8-3.6-8-8s3.6-8,8-8S263,352.6,263,357z
	 M70.6,359.8l35.3-35.3l41.5,32.3l4.5-2.4c6.2-3.2,12.5-5.9,18.8-7.8l4.9-1.5l6.5-52.1h49.9l5.9,47.3c-4.2,4.3-6.8,10.2-6.8,16.7
	c0,6.7,2.8,12.8,7.3,17.2l-8.6,18.6c-7.2-2.4-14.8-3.7-22.7-3.7c-27.8,0-51.8,15.8-63.9,38.9l-16.2-6.2c0-0.2,0.1-0.4,0.1-0.6
	c0-13.2-10.8-24-24-24c-1.1,0-2.2,0.2-3.3,0.3L70.6,359.8z M152.4,448.6l30.6,11.8c0,0.2-0.1,0.4-0.1,0.6c0,13.2,10.8,24,24,24
	s24-10.8,24-24c0-6.7-2.8-12.8-7.3-17.2l13.7-29.8c15.4,10,25.5,27.3,25.5,46.9c0,30.9-25.1,56-56,56s-56-25.1-56-56
	C151,456.7,151.5,452.6,152.4,448.6L152.4,448.6z M207,453c4.4,0,8,3.6,8,8s-3.6,8-8,8s-8-3.6-8-8S202.6,453,207,453z M209.2,437.2
	c-0.7-0.1-1.4-0.2-2.2-0.2c-7.3,0-13.7,3.3-18.1,8.5l-30.7-11.8c9.6-17.1,27.9-28.7,48.8-28.7c5.5,0,10.9,0.8,16,2.3L209.2,437.2z
	 M103,413c4.4,0,8,3.6,8,8s-3.6,8-8,8s-8-3.6-8-8S98.6,413,103,413z M313.5,405.9c3.2,6.2,5.9,12.5,7.8,18.8l1.5,4.9l52.1,6.5v49.9
	l-52.1,6.5l-1.5,4.9c-2,6.2-4.6,12.5-7.8,18.8l-2.4,4.6l32.3,41.5l-35.3,35.3l-41.5-32.3l-4.5,2.4c-6.2,3.2-12.5,5.9-18.8,7.8
	l-4.9,1.5l-6.5,52.1h-49.9l-6.5-52.1l-4.9-1.5c-6.2-2-12.6-4.6-18.8-7.8l-4.5-2.4l-41.5,32.3l-35.3-35.3l32.3-41.5l-2.4-4.6
	c-3.2-6.2-5.9-12.5-7.8-18.8l-1.5-4.9L39,485.9v-49.9l42.1-5.3c3.8,8.4,12.1,14.2,21.9,14.2c7.3,0,13.7-3.3,18.1-8.5l16.3,6.3
	c-1.5,5.8-2.4,11.9-2.4,18.2c0,39.7,32.3,72,72,72s72-32.3,72-72c0-26.1-14-48.9-34.8-61.5l8.6-18.7c0.7,0.1,1.4,0.2,2.2,0.2
	c9.1,0,17-5.2,21-12.7l54.3,8.4l-19.2,24.6L313.5,405.9z M359,381c-4.4,0-8-3.6-8-8s3.6-8,8-8s8,3.6,8,8S363.4,381,359,381z
	 M431,293c-4.4,0-8-3.6-8-8s3.6-8,8-8s8,3.6,8,8S435.4,293,431,293z"/>
<path d="M154.3,229H119v-80h-16v96h12.7L71,289.7L26.3,245H39v-64H23v48h-35.3L71,312.3L154.3,229z"/>
<path d="M23,149h16v16H23V149z"/>
<path d="M295,293h16v-80h-12.7l44.7-44.7l44.7,44.7H375v48h16v-32h35.3L343,145.7L259.7,229H295V293z"/>
<path d="M375,277h16v16h-16V277z"/>
</svg>
