<?xml version="1.0" encoding="utf-8"?>
<!-- Generator: Adobe Illustrator 19.0.1, SVG Export Plug-In . SVG Version: 6.00 Build 0)  -->
<svg version="1.1" id="Capa_1" xmlns="http://www.w3.org/2000/svg" xmlns:xlink="http://www.w3.org/1999/xlink" x="0px" y="0px"
	 viewBox="-100 192.3 409.7 409.7" style="enable-background:new -100 192.3 409.7 409.7;" xml:space="preserve">
<g>
	<path d="M20.3,347.6c-0.5,0.7-0.9,1.4-1.3,2C19.4,349,19.8,348.3,20.3,347.6z"/>
	<path d="M19,444.7c0.4,0.6,0.8,1.3,1.3,2C19.8,446,19.4,445.3,19,444.7z"/>
	<path d="M189.4,446.7c0.5-0.7,0.9-1.3,1.3-2C190.3,445.3,189.9,446,189.4,446.7z"/>
	<path d="M245.4,301.4c-12-17.5-27.2-32.7-44.7-44.7c-15.5-37.7-52.6-64.3-95.8-64.3c-43.2,0-80.3,26.6-95.8,64.3
		c-17.6,12-32.8,27.2-44.8,44.8c-37.7,15.5-64.3,52.6-64.3,95.8c0,43.2,26.6,80.3,64.3,95.8c12,17.5,27.2,32.7,44.7,44.7
		c15.5,37.7,52.6,64.3,95.8,64.3c43.2,0,80.3-26.6,95.8-64.3c17.6-12,32.8-27.2,44.8-44.8c37.7-15.5,64.3-52.6,64.3-95.8
		C309.7,353.9,283.1,316.8,245.4,301.4z M195.4,270c14.7,10.5,27.5,23.5,37.9,38.4l-42.5,41.2c-1.6-2.5-3.6-5.5-6-8.7l0,0
		c-7.6-10.2-18.7-22.8-32.2-30.1l39.2-37.4c0,0,0,0,0,0L195.4,270z M22.2,397.2c0-45.6,37.1-82.6,82.6-82.6s82.6,37.1,82.6,82.6
		c0,45.6-37.1,82.6-82.6,82.6S22.2,442.7,22.2,397.2z M104.8,206.3c29.7,0,56.1,14.6,72.4,36.9c-22-10.4-46.5-16.2-72.4-16.2
		s-50.4,5.8-72.4,16.2C48.8,220.9,75.1,206.3,104.8,206.3z M104.8,241c28.6,0,55.4,7.7,78.4,21.2l-46.1,43.9
		c-10.1-3.6-21-5.6-32.4-5.6c-11.4,0-22.3,2-32.4,5.6l-46.1-43.9C49.5,248.8,76.3,241,104.8,241z M14.3,270l42.8,40.8
		c-13.5,7.3-24.7,19.9-32.2,30.1c-1.7,2.4-3.3,4.6-4.6,6.7c-0.5,0.7-0.9,1.4-1.3,2l-42.5-41.2C-13.2,293.6-0.4,280.5,14.3,270z
		 M-49.1,324.8c-10.4,22-16.2,46.5-16.2,72.4c0,25.9,5.8,50.4,16.2,72.4C-71.4,453.2-86,426.9-86,397.2
		C-86,397.2-87.7,357.9-49.1,324.8z M-51.3,397.2c0-27.8,7.3-54,20.1-76.6L14,364.3c-3.7,10.3-5.8,21.3-5.8,32.9s2,22.6,5.8,32.9
		l-45.1,43.7C-44,451.1-51.3,425-51.3,397.2z M-23.5,485.9L19,444.7c0.4,0.6,0.8,1.3,1.3,2c1.3,2,2.9,4.3,4.6,6.6
		c7.6,10.3,18.7,22.9,32.3,30.2L20.9,518l-6.6,6.3C-0.4,513.8-13.2,500.8-23.5,485.9z M104.8,588c-29.7,0-56.1-14.6-72.4-36.9
		c22,10.4,46.5,16.2,72.4,16.2s50.4-5.8,72.4-16.2C160.9,573.4,134.6,588,104.8,588z M104.8,553.3c-28.6,0-55.4-7.7-78.4-21.2
		l46.1-43.9c10.1,3.6,21,5.6,32.4,5.6c11.4,0,22.3-2,32.4-5.6l46.1,43.9C160.2,545.6,133.4,553.3,104.8,553.3z M195.4,524.3
		l-3.5-3.3c0,0,0,0,0,0l-39.4-37.5c13.6-7.4,24.8-20,32.4-30.3c1.7-2.3,3.2-4.5,4.5-6.5c0.5-0.7,0.9-1.3,1.3-2l42.5,41.2
		C222.9,500.8,210.1,513.8,195.4,524.3z M240.8,473.8L195.7,430c3.7-10.3,5.8-21.3,5.8-32.9c0-11.5-2-22.6-5.8-32.9l45.1-43.7
		c12.8,22.6,20.1,48.8,20.1,76.6C261,425,253.6,451.1,240.8,473.8z M258.8,469.5c10.4-22,16.2-46.5,16.2-72.4s-5.8-50.4-16.2-72.4
		c22.4,16.3,36.9,42.7,36.9,72.4S281.1,453.2,258.8,469.5z"/>
</g>
</svg>
